<?xml version="1.0" standalone="no"?>
<!DOCTYPE svg PUBLIC "-//W3C//DTD SVG 20010904//EN"
 "http://www.w3.org/TR/2001/REC-SVG-20010904/DTD/svg10.dtd">
<svg version="1.0" xmlns="http://www.w3.org/2000/svg"
 width="260.000000pt" height="260.000000pt" viewBox="0 0 260.000000 260.000000"
 preserveAspectRatio="xMidYMid meet">
<metadata>
Created by potrace 1.14, written by Peter Selinger 2001-2017
</metadata>
<g transform="translate(0.000000,260.000000) scale(0.100000,-0.100000)"
fill="#000000" stroke="none">
<path d="M1125 2590 c-560 -88 -984 -488 -1102 -1040 -28 -131 -25 -382 5
-520 59 -265 178 -476 374 -666 183 -177 390 -286 648 -341 131 -28 382 -25
520 5 265 59 476 178 666 374 177 183 286 390 341 648 28 131 25 382 -5 520
-113 508 -502 894 -1012 1005 -89 19 -350 28 -435 15z m76 -686 c50 -30 73
-67 73 -121 -1 -96 -54 -143 -171 -151 l-63 -4 0 -74 0 -74 -50 0 -50 0 0 219
0 220 33 4 c70 10 196 0 228 -19z m454 12 c39 -17 40 -17 23 -63 -9 -24 -17
-32 -28 -27 -69 29 -135 25 -174 -11 -53 -49 -56 -162 -5 -219 25 -29 32 -31
91 -31 35 0 75 4 89 8 23 7 27 5 33 -16 3 -14 9 -32 12 -41 9 -23 -94 -50
-167 -43 -113 10 -184 79 -196 190 -11 111 37 210 121 248 50 23 152 25 201 5z
m-320 -587 c83 -23 135 -89 135 -174 0 -66 -33 -119 -150 -240 -60 -64 -110
-120 -110 -125 0 -6 56 -10 140 -10 l140 0 0 -60 0 -60 -220 0 -220 0 0 57 c0
81 29 133 129 233 125 125 141 147 141 189 0 42 -7 54 -37 70 -35 18 -67 13
-128 -19 -31 -16 -59 -30 -61 -30 -4 0 -64 87 -64 94 0 8 88 58 128 72 46 16
124 17 177 3z m660 -23 c87 -38 125 -98 125 -199 0 -88 -29 -143 -96 -179 -49
-27 -145 -48 -216 -48 l-38 0 0 -110 0 -110 -75 0 -75 0 0 329 0 330 33 4 c17
3 93 4 167 3 102 -2 145 -7 175 -20z m-1035 -46 l0 -60 -145 0 -145 0 0 -70 0
-70 130 0 130 0 0 -60 0 -60 -130 0 -130 0 0 -140 0 -140 -75 0 -75 0 0 330 0
330 220 0 220 0 0 -60z"/>
<path d="M1040 1774 l0 -67 45 7 c68 9 85 21 85 61 0 47 -22 65 -81 65 l-49 0
0 -66z"/>
<path d="M1788 1203 c-16 -4 -18 -18 -18 -99 l0 -94 48 0 c65 0 119 17 137 43
30 43 12 118 -34 136 -32 13 -110 21 -133 14z"/>
</g>
</svg>
